# xmcd CD database file
#
# Track frame offsets:
#	150
#	22927
#	42154
#	65493
#	86662
#	106614
#	120434
#	141621
#	156053
#	172705
#	188272
#	198901
#	213863
#	225612
#	234679
#	247891
#	263890
#	278140
#	291624
#	304311
#	319181
#
# Disc length: 4470 seconds
#
# Revision: 1
# Processed by: cddbd v1.5.2PL0 Copyright (c) Steve Scherf et al.
# Submitted via: CDex 1.51
#
DISCID=1e117415
DTITLE=Louis Armstrong and Ella Fitzgerald best - best
DYEAR=1990
DGENRE=Jazz
TTITLE0=summer time
TTITLE1=let's call whole thing off
TTITLE2=tenderly
TTITLE3=they can't take that away from me
TTITLE4=when the saints go marchingin
TTITLE5=sitting in the sun
TTITLE6=black and blue
TTITLE7=cabaret
TTITLE8=moonlight in veraont
TTITLE9=la vie en rose
TTITLE10=what a wonderful world
TTITLE11=the home fire
TTITLE12=hellzapoppin
TTITLE13=give me your kisses
TTITLE14=the sunshine of love
TTITLE15=hello brother
TTITLE16=there must be a way
TTITLE17=fantastic that's you
TTITLE18=i guess i'll take the peppr and go home
TTITLE19=dream a little dream
TTITLE20=stars fall on alabama
EXTD=YEAR: 1990
EXTT0=
EXTT1=
EXTT2=
EXTT3=
EXTT4=
EXTT5=
EXTT6=
EXTT7=
EXTT8=
EXTT9=
EXTT10=
EXTT11=
EXTT12=
EXTT13=
EXTT14=
EXTT15=
EXTT16=
EXTT17=
EXTT18=
EXTT19=
EXTT20=
PLAYORDER=
